<svg width="132" height="17" viewBox="0 0 132 17" fill="none" xmlns="http://www.w3.org/2000/svg">
<path d="M0.6 10.204C0.6 6.7 2.904 3.652 6.708 3.652C9.156 3.652 10.932 5.008 10.932 6.724C10.932 7.876 10.068 8.548 9.06 8.548C8.496 8.548 8.46 8.236 8.292 7.54C8.028 6.316 7.404 5.176 6.132 5.176C4.596 5.176 3.432 6.748 3.432 9.004C3.432 11.62 4.884 13.672 7.416 13.672C9.492 13.672 10.38 12.328 10.812 11.632C10.92 11.488 11.064 11.32 11.22 11.32C11.496 11.32 11.568 11.632 11.568 12.004C11.568 13.768 9.732 16.264 6.432 16.264C2.976 16.264 0.6 13.72 0.6 10.204ZM18.5869 5.968C17.4469 5.968 16.4269 7.444 16.4269 8.656V13.024C16.4269 13.852 16.6549 14.212 17.3149 14.62C17.6869 14.872 18.3469 14.968 18.3469 15.46C18.3469 15.808 18.1549 16.06 17.5069 16.06C16.8709 16.06 16.0669 16 15.0469 16C14.3029 16 13.9909 16.06 12.9949 16.06C12.4189 16.06 12.2509 15.796 12.2509 15.496C12.2509 15.04 12.6709 14.836 12.8989 14.644C13.4869 14.116 13.5829 13.6 13.5829 12.988V7C13.5829 6.376 13.1869 6.136 12.7669 5.98C12.5149 5.86 12.2989 5.704 12.2989 5.416C12.2989 4.888 12.9229 4.792 13.7029 4.456C14.6989 4.024 15.0829 3.76 15.4789 3.76C15.8509 3.76 16.0669 3.916 16.1869 4.432C16.3069 4.996 16.3549 5.608 16.5589 5.608C16.8109 5.608 18.0709 3.652 20.0989 3.652C21.1909 3.652 22.2709 4.3 22.2709 6.004C22.2709 7.18 21.4549 8.32 20.4109 8.32C19.7149 8.32 19.7389 7.888 19.5829 7.144C19.4389 6.412 19.1029 5.968 18.5869 5.968ZM32.3333 9.472C30.9053 10.336 27.7253 10.636 25.9853 10.696C25.7573 10.708 25.6733 10.756 25.6733 10.924C25.6733 11.944 26.6093 13.936 29.0933 13.936C30.9293 13.936 32.0213 13.036 32.6573 12.004C32.7893 11.836 32.9573 11.692 33.1013 11.692C33.2933 11.692 33.4133 11.884 33.4133 12.316C33.4133 13.768 31.6853 16.264 28.2653 16.264C24.7133 16.264 22.4333 13.756 22.4333 10.228C22.4333 6.7 24.8813 3.652 28.5653 3.652C31.6013 3.652 33.2213 5.824 33.2213 7.996C33.2213 8.74 32.8613 9.172 32.3333 9.472ZM30.4973 7.564C30.4973 6.22 29.5493 5.2 28.2893 5.2C26.5973 5.2 25.3613 6.904 25.3613 8.68C25.3613 9.052 25.4813 9.28 25.7693 9.28C26.6813 9.28 29.1653 8.968 30.0893 8.332C30.3653 8.14 30.4973 7.9 30.4973 7.564ZM37.7653 9.556C39.3253 9.112 41.2093 9.04 41.4973 8.836C41.6293 8.74 41.7493 8.548 41.7493 7.792C41.7493 6.244 41.1013 4.996 39.5173 4.996C38.2333 4.996 37.6333 5.98 37.3693 7.084C37.2253 7.672 36.9853 8.056 36.3253 8.056C35.6533 8.056 34.9093 7.576 34.9093 6.52C34.9093 5.14 36.6133 3.64 39.5533 3.64C42.6493 3.64 44.6533 5.356 44.6533 8.464C44.6533 10.024 44.5213 11.872 44.5213 12.964C44.5213 13.492 44.6893 13.996 45.2173 13.996C45.5053 13.996 45.6253 13.9 45.8053 13.9C45.9013 13.9 46.0213 14.032 46.0213 14.308C46.0213 15.34 45.0613 16.18 43.8613 16.18C42.8413 16.18 42.1693 15.796 41.8093 14.92C41.7613 14.812 41.6893 14.716 41.6053 14.716C41.5213 14.716 41.4253 14.86 41.3293 14.956C40.5493 15.712 39.2533 16.288 37.8853 16.288C35.8573 16.288 34.2733 15.22 34.2733 13.3C34.2733 11.416 35.6413 10.192 37.7653 9.556ZM41.7613 11.308C41.7613 10.588 41.6893 10.372 41.5333 10.372C40.5373 10.372 39.7333 10.468 39.0493 10.684C37.7773 11.104 37.2133 11.944 37.2133 12.796C37.2133 13.792 37.9573 14.368 38.9893 14.368C40.6213 14.368 41.7613 13.144 41.7613 11.308ZM50.5644 6.1C50.5284 6.532 50.4564 9.928 50.4564 11.152C50.4564 12.508 50.7444 13.948 52.2324 13.948C52.9884 13.948 53.5644 13.468 53.9004 13.12C54.0804 12.928 54.1764 12.832 54.3324 12.832C54.4764 12.832 54.6564 12.94 54.6564 13.324C54.6564 13.552 54.5724 13.864 54.3924 14.176C53.9484 15.028 52.8564 16.24 50.8164 16.24C48.6564 16.24 47.5524 14.8 47.5524 11.932C47.5524 10.84 47.7084 7.732 47.7084 6.544C47.7084 6.088 47.6004 5.872 47.2404 5.824C46.3644 5.716 45.8484 5.656 45.8484 5.188C45.8484 4.828 45.9804 4.516 46.3884 4.324C47.1084 4 47.8404 3.592 48.3684 3.016C49.2804 1.996 49.3524 0.699999 50.0364 0.699999C50.4204 0.699999 50.6724 1.024 50.6724 1.636C50.6724 2.104 50.5524 3.964 50.5524 4.048C50.5524 4.108 50.5644 4.144 50.6604 4.144C50.8644 4.144 53.2164 4.024 53.4924 4.024C53.9604 4.024 54.2604 4.156 54.2604 4.72C54.2604 5.128 54.0324 5.656 53.8284 5.872C53.7564 5.944 53.6124 6.016 53.4204 6.016C53.1684 6.016 51.0684 5.896 50.7564 5.896C50.6844 5.896 50.5764 5.92 50.5644 6.1ZM54.9422 10.036C54.9422 6.268 57.4382 3.652 60.8702 3.652C64.1462 3.652 67.0742 6.04 67.0742 10.252C67.0742 14.248 64.3382 16.24 61.0262 16.24C57.3182 16.24 54.9422 13.636 54.9422 10.036ZM60.6062 5.224C59.2022 5.224 58.0142 6.424 58.0142 9.052C58.0142 10.096 58.1702 11.464 58.6982 12.544C59.3702 13.888 60.4502 14.428 61.4342 14.428C62.8382 14.428 64.1222 13.42 64.1222 10.972C64.1222 9.712 63.7982 8.26 63.2822 7.228C62.5862 5.884 61.5902 5.224 60.6062 5.224ZM74.2181 5.968C73.0781 5.968 72.0581 7.444 72.0581 8.656V13.024C72.0581 13.852 72.2861 14.212 72.9461 14.62C73.3181 14.872 73.9781 14.968 73.9781 15.46C73.9781 15.808 73.7861 16.06 73.1381 16.06C72.5021 16.06 71.6981 16 70.6781 16C69.9341 16 69.6221 16.06 68.6261 16.06C68.0501 16.06 67.8821 15.796 67.8821 15.496C67.8821 15.04 68.3021 14.836 68.5301 14.644C69.1181 14.116 69.2141 13.6 69.2141 12.988V7C69.2141 6.376 68.8181 6.136 68.3981 5.98C68.1461 5.86 67.9301 5.704 67.9301 5.416C67.9301 4.888 68.5541 4.792 69.3341 4.456C70.3301 4.024 70.7141 3.76 71.1101 3.76C71.4821 3.76 71.6981 3.916 71.8181 4.432C71.9381 4.996 71.9861 5.608 72.1901 5.608C72.4421 5.608 73.7021 3.652 75.7301 3.652C76.8221 3.652 77.9021 4.3 77.9021 6.004C77.9021 7.18 77.0861 8.32 76.0421 8.32C75.3461 8.32 75.3701 7.888 75.2141 7.144C75.0701 6.412 74.7341 5.968 74.2181 5.968ZM89.7829 5.728C90.0589 5.728 91.4029 3.652 93.8749 3.652C96.2989 3.652 97.5829 5.284 97.5829 8.368C97.5829 10.576 97.2709 12.628 97.2709 13.42C97.2709 13.888 97.4389 14.38 97.8109 14.644C98.2309 14.944 98.5909 15.004 98.5909 15.46C98.5909 15.82 98.3389 16.06 97.7029 16.06C97.1749 16.06 96.7309 16 96.1309 16C95.3989 16 95.1349 16.06 94.5229 16.06C94.0789 16.06 93.9229 15.796 93.9229 15.496C93.9229 15.112 94.1029 14.704 94.1749 14.476C94.4029 13.768 94.6789 11.524 94.6789 9.172C94.6789 6.808 93.8149 5.68 92.4229 5.68C91.3669 5.68 89.9749 6.676 89.9749 8.392C89.9749 10.6 89.8429 12.628 89.8429 13.42C89.8429 13.888 89.9509 14.368 90.2989 14.644C90.6949 14.944 91.0429 15.004 91.0429 15.46C91.0429 15.82 90.7909 16.06 90.1549 16.06C89.6149 16.06 89.2909 16 88.6789 16C87.9469 16 87.6829 16.06 87.0829 16.06C86.6269 16.06 86.4709 15.796 86.4709 15.496C86.4709 15.112 86.6509 14.704 86.7349 14.476C86.9509 13.768 87.1669 11.524 87.1669 9.172C87.1669 6.808 86.3389 5.68 84.9469 5.68C83.7949 5.68 82.4509 6.964 82.4509 8.176V13.132C82.4509 13.96 82.5829 14.296 82.9189 14.608C83.2429 14.92 83.6149 14.992 83.6149 15.46C83.6149 15.808 83.4229 16.06 82.7989 16.06C82.1749 16.06 81.6949 16 81.1069 16C80.4229 16 79.8349 16.06 79.0909 16.06C78.5389 16.06 78.3709 15.796 78.3709 15.496C78.3709 15.04 78.7789 14.836 78.9949 14.644C79.5589 14.116 79.6429 13.6 79.6429 12.988V7C79.6429 6.376 79.2829 6.148 78.8989 5.992C78.6709 5.884 78.4189 5.728 78.4189 5.416C78.4189 4.888 79.0669 4.792 79.8469 4.456C80.8429 4.024 81.1549 3.76 81.5509 3.76C81.9109 3.76 82.1389 3.916 82.2589 4.432C82.3669 4.996 82.4149 5.608 82.6069 5.608C82.8349 5.608 84.2389 3.652 86.3869 3.652C87.5869 3.652 88.5949 4.108 89.2669 5.14C89.5189 5.5 89.6269 5.728 89.7829 5.728ZM102.959 9.556C104.519 9.112 106.403 9.04 106.691 8.836C106.823 8.74 106.943 8.548 106.943 7.792C106.943 6.244 106.295 4.996 104.711 4.996C103.427 4.996 102.827 5.98 102.563 7.084C102.419 7.672 102.179 8.056 101.519 8.056C100.847 8.056 100.103 7.576 100.103 6.52C100.103 5.14 101.807 3.64 104.747 3.64C107.843 3.64 109.847 5.356 109.847 8.464C109.847 10.024 109.715 11.872 109.715 12.964C109.715 13.492 109.883 13.996 110.411 13.996C110.699 13.996 110.819 13.9 110.999 13.9C111.095 13.9 111.215 14.032 111.215 14.308C111.215 15.34 110.255 16.18 109.055 16.18C108.035 16.18 107.363 15.796 107.003 14.92C106.955 14.812 106.883 14.716 106.799 14.716C106.715 14.716 106.619 14.86 106.523 14.956C105.743 15.712 104.447 16.288 103.079 16.288C101.051 16.288 99.4671 15.22 99.4671 13.3C99.4671 11.416 100.835 10.192 102.959 9.556ZM106.955 11.308C106.955 10.588 106.883 10.372 106.727 10.372C105.731 10.372 104.927 10.468 104.243 10.684C102.971 11.104 102.407 11.944 102.407 12.796C102.407 13.792 103.151 14.368 104.183 14.368C105.815 14.368 106.955 13.144 106.955 11.308ZM115.758 6.1C115.722 6.532 115.65 9.928 115.65 11.152C115.65 12.508 115.938 13.948 117.426 13.948C118.182 13.948 118.758 13.468 119.094 13.12C119.274 12.928 119.37 12.832 119.526 12.832C119.67 12.832 119.85 12.94 119.85 13.324C119.85 13.552 119.766 13.864 119.586 14.176C119.142 15.028 118.05 16.24 116.01 16.24C113.85 16.24 112.746 14.8 112.746 11.932C112.746 10.84 112.902 7.732 112.902 6.544C112.902 6.088 112.794 5.872 112.434 5.824C111.558 5.716 111.042 5.656 111.042 5.188C111.042 4.828 111.174 4.516 111.582 4.324C112.302 4 113.034 3.592 113.562 3.016C114.474 1.996 114.546 0.699999 115.23 0.699999C115.614 0.699999 115.866 1.024 115.866 1.636C115.866 2.104 115.746 3.964 115.746 4.048C115.746 4.108 115.758 4.144 115.854 4.144C116.058 4.144 118.41 4.024 118.686 4.024C119.154 4.024 119.454 4.156 119.454 4.72C119.454 5.128 119.226 5.656 119.022 5.872C118.95 5.944 118.806 6.016 118.614 6.016C118.362 6.016 116.262 5.896 115.95 5.896C115.878 5.896 115.77 5.92 115.758 6.1ZM130.048 9.472C128.62 10.336 125.44 10.636 123.7 10.696C123.472 10.708 123.388 10.756 123.388 10.924C123.388 11.944 124.324 13.936 126.808 13.936C128.644 13.936 129.736 13.036 130.372 12.004C130.504 11.836 130.672 11.692 130.816 11.692C131.008 11.692 131.128 11.884 131.128 12.316C131.128 13.768 129.4 16.264 125.98 16.264C122.428 16.264 120.148 13.756 120.148 10.228C120.148 6.7 122.596 3.652 126.28 3.652C129.316 3.652 130.936 5.824 130.936 7.996C130.936 8.74 130.576 9.172 130.048 9.472ZM128.212 7.564C128.212 6.22 127.264 5.2 126.004 5.2C124.312 5.2 123.076 6.904 123.076 8.68C123.076 9.052 123.196 9.28 123.484 9.28C124.396 9.28 126.88 8.968 127.804 8.332C128.08 8.14 128.212 7.9 128.212 7.564Z" fill="white"/>
</svg>
