<svg xmlns="http://www.w3.org/2000/svg" version="1.1" xmlns:xlink="http://www.w3.org/1999/xlink" xmlns:svgjs="http://svgjs.com/svgjs" width="708" height="280"><svg width="708" height="280" viewBox="0 0 708 280" fill="none" xmlns="http://www.w3.org/2000/svg">
<path d="M512.237 46.0894C518.364 46.0894 548.203 0 603.084 0C656.899 0 685.405 36.2322 685.405 104.7C685.405 153.72 678.479 199.277 678.479 216.86C678.479 227.25 682.208 238.173 690.467 244.034C699.792 250.695 707.784 252.027 707.784 262.15C707.784 270.143 702.189 275.471 688.069 275.471C676.347 275.471 666.49 274.139 653.169 274.139C636.918 274.139 631.057 275.471 617.47 275.471C607.613 275.471 604.149 269.61 604.149 262.95C604.149 254.424 608.146 245.366 609.744 240.304C614.806 224.586 620.933 174.767 620.933 122.55C620.933 70.0666 601.752 45.0238 570.848 45.0238C547.403 45.0238 516.5 67.1361 516.5 105.233C516.5 154.253 513.569 199.277 513.569 216.86C513.569 227.25 515.967 237.907 523.693 244.034C532.484 250.695 540.21 252.027 540.21 262.15C540.21 270.143 534.616 275.471 520.496 275.471C508.507 275.471 501.314 274.139 487.727 274.139C471.476 274.139 465.615 275.471 452.294 275.471C442.17 275.471 438.707 269.61 438.707 262.95C438.707 254.424 442.703 245.366 444.568 240.304C449.363 224.586 454.159 174.767 454.159 122.55C454.159 70.0666 435.776 45.0238 404.872 45.0238C379.297 45.0238 349.459 73.53 349.459 100.438V210.466C349.459 228.849 352.389 236.308 359.849 243.235C367.042 250.162 375.301 251.76 375.301 262.15C375.301 269.876 371.038 275.471 357.185 275.471C343.331 275.471 332.675 274.139 319.62 274.139C304.435 274.139 291.381 275.471 274.863 275.471C262.608 275.471 258.878 269.61 258.878 262.95C258.878 252.826 267.936 248.297 272.732 244.034C285.253 232.312 287.118 220.856 287.118 207.269V74.3292C287.118 60.4757 279.126 55.4139 270.6 51.9505C265.538 49.5528 259.944 46.0894 259.944 39.1627C259.944 27.4405 274.33 25.3092 291.647 17.8497C313.759 8.25881 320.686 2.39769 329.478 2.39769C337.47 2.39769 342.532 5.86107 345.196 17.3168C347.594 29.8382 348.659 43.4253 352.922 43.4253C357.984 43.4253 389.154 0 436.842 0C463.483 0 485.862 10.1237 500.781 33.0352C506.376 41.0276 508.774 46.0894 512.237 46.0894Z" fill="white"></path>
<path d="M0.216064 145.461C0.216064 67.6689 51.3674 0 135.82 0C190.169 0 229.598 30.1047 229.598 68.2017C229.598 93.7774 210.416 108.697 188.037 108.697C175.516 108.697 174.717 101.77 170.987 86.3178C165.126 59.1437 151.272 33.8344 123.032 33.8344C88.9316 33.8344 63.0895 68.7345 63.0895 118.82C63.0895 176.898 95.3255 222.455 151.539 222.455C197.628 222.455 217.343 192.617 226.933 177.165C229.331 173.968 232.528 170.238 235.992 170.238C242.119 170.238 243.718 177.165 243.718 185.423C243.718 224.586 202.956 280 129.693 280C52.9658 280 0.216064 223.52 0.216064 145.461Z" fill="white"></path>
</svg><style>@media (prefers-color-scheme: light) { :root { filter: contrast(1) brightness(0.1); } }
@media (prefers-color-scheme: dark) { :root { filter: none; } }
</style></svg>