<?xml version="1.0" standalone="no"?>
<!DOCTYPE svg PUBLIC "-//W3C//DTD SVG 20010904//EN"
 "http://www.w3.org/TR/2001/REC-SVG-20010904/DTD/svg10.dtd">
<svg version="1.0" xmlns="http://www.w3.org/2000/svg"
 width="1024.000000pt" height="1024.000000pt" viewBox="0 0 1024.000000 1024.000000"
 preserveAspectRatio="xMidYMid meet">
<metadata>
Created by potrace 1.14, written by Peter Selinger 2001-2017
</metadata>
<g transform="translate(0.000000,1024.000000) scale(0.100000,-0.100000)"
fill="#000000" stroke="none">
<path d="M0 5120 l0 -5120 5120 0 5120 0 0 5120 0 5120 -5120 0 -5120 0 0
-5120z m3595 1121 c210 -55 378 -181 452 -336 33 -70 38 -90 41 -170 3 -74 0
-100 -17 -146 -45 -119 -155 -197 -291 -207 -112 -8 -130 12 -176 198 -33 137
-78 232 -143 302 -85 93 -188 129 -308 108 -249 -43 -415 -291 -431 -643 -13
-293 68 -536 233 -703 133 -135 265 -192 460 -201 137 -6 228 11 343 67 96 46
196 135 270 240 63 90 92 120 117 120 54 0 77 -91 56 -215 -43 -244 -233 -473
-497 -597 -135 -63 -215 -80 -404 -85 -141 -4 -180 -2 -268 16 -421 87 -711
386 -809 833 -27 125 -24 398 5 535 105 489 432 820 891 903 25 5 125 7 221 6
140 -3 191 -8 255 -25z m2383 14 c83 -20 187 -73 248 -128 27 -25 78 -86 113
-135 34 -50 69 -93 77 -96 9 -3 48 26 102 76 113 105 206 171 317 223 117 56
206 75 348 75 338 0 540 -161 635 -508 26 -96 26 -101 26 -422 0 -258 -5 -371
-22 -549 -26 -260 -27 -341 -8 -404 20 -67 50 -104 126 -152 37 -24 75 -54 84
-66 34 -49 10 -127 -45 -150 -26 -10 -113 -13 -387 -13 l-355 0 -23 28 c-34
39 -32 111 6 227 61 189 94 505 95 909 0 255 -3 305 -19 370 -41 165 -118 278
-226 329 -76 36 -200 41 -283 12 -115 -40 -217 -133 -276 -248 -40 -79 -49
-154 -55 -458 -3 -159 -9 -391 -12 -515 -10 -314 2 -352 133 -436 109 -70 105
-183 -7 -211 -42 -10 -665 -9 -698 1 -28 9 -52 55 -52 100 0 20 13 77 29 128
52 162 74 349 92 756 21 474 -22 690 -163 817 -72 65 -142 88 -249 83 -73 -3
-97 -9 -155 -38 -99 -48 -202 -153 -251 -256 l-38 -79 0 -560 0 -560 26 -56
c21 -43 43 -69 97 -113 90 -71 105 -110 70 -183 -21 -44 -48 -46 -457 -48
-212 0 -400 3 -418 8 -41 10 -63 41 -63 90 0 53 19 83 94 150 47 42 74 75 98
124 l33 68 3 617 c2 408 -1 631 -8 657 -15 57 -41 84 -121 126 -56 29 -74 44
-85 72 -29 67 12 119 130 164 45 17 150 62 235 101 124 57 163 70 203 70 84 0
107 -34 142 -209 28 -143 33 -145 132 -56 165 147 309 235 439 267 80 19 263
20 343 1z"/>
</g>
</svg>
